<mxfile host="app.diagrams.net" modified="2024-05-28T10:39:58.150Z" agent="Mozilla/5.0 (Windows NT 10.0; Win64; x64) AppleWebKit/537.36 (KHTML, like Gecko) Chrome/125.0.0.0 Safari/537.36" etag="54je5cZS6MKTVSv80oET" version="24.4.9" type="device">
  <diagram name="Página-1" id="-rIwXZ0aqy2e8YR9h0zD">
    <mxGraphModel dx="2694" dy="1404" grid="0" gridSize="10" guides="1" tooltips="1" connect="1" arrows="1" fold="1" page="0" pageScale="1" pageWidth="840" pageHeight="817" math="0" shadow="0">
      <root>
        <mxCell id="0" />
        <mxCell id="1" parent="0" />
        <mxCell id="wjMWc-tGTkvaFPvhf7mI-1" value="" style="rounded=0;whiteSpace=wrap;html=1;" parent="1" vertex="1">
          <mxGeometry x="-365" y="3" width="1547" height="431" as="geometry" />
        </mxCell>
        <mxCell id="wjMWc-tGTkvaFPvhf7mI-2" value="SNAKE GAME" style="text;html=1;align=center;verticalAlign=middle;whiteSpace=wrap;rounded=0;fontSize=16;" parent="1" vertex="1">
          <mxGeometry x="307" y="-33" width="174" height="26" as="geometry" />
        </mxCell>
        <mxCell id="7YJ9oviFyOqaCoSFqe8K-40" style="edgeStyle=none;curved=1;rounded=0;orthogonalLoop=1;jettySize=auto;html=1;fontSize=12;startSize=8;endSize=8;" edge="1" parent="1" source="wjMWc-tGTkvaFPvhf7mI-3" target="wjMWc-tGTkvaFPvhf7mI-7">
          <mxGeometry relative="1" as="geometry" />
        </mxCell>
        <mxCell id="7YJ9oviFyOqaCoSFqe8K-41" style="edgeStyle=none;curved=1;rounded=0;orthogonalLoop=1;jettySize=auto;html=1;entryX=0.5;entryY=1;entryDx=0;entryDy=0;fontSize=12;startSize=8;endSize=8;" edge="1" parent="1" source="wjMWc-tGTkvaFPvhf7mI-3" target="wjMWc-tGTkvaFPvhf7mI-10">
          <mxGeometry relative="1" as="geometry" />
        </mxCell>
        <mxCell id="7YJ9oviFyOqaCoSFqe8K-42" style="edgeStyle=none;curved=1;rounded=0;orthogonalLoop=1;jettySize=auto;html=1;fontSize=12;startSize=8;endSize=8;" edge="1" parent="1" source="wjMWc-tGTkvaFPvhf7mI-3" target="wjMWc-tGTkvaFPvhf7mI-11">
          <mxGeometry relative="1" as="geometry" />
        </mxCell>
        <mxCell id="7YJ9oviFyOqaCoSFqe8K-43" style="edgeStyle=none;curved=1;rounded=0;orthogonalLoop=1;jettySize=auto;html=1;fontSize=12;startSize=8;endSize=8;" edge="1" parent="1" source="wjMWc-tGTkvaFPvhf7mI-3" target="wjMWc-tGTkvaFPvhf7mI-14">
          <mxGeometry relative="1" as="geometry" />
        </mxCell>
        <mxCell id="7YJ9oviFyOqaCoSFqe8K-44" style="edgeStyle=none;curved=1;rounded=0;orthogonalLoop=1;jettySize=auto;html=1;entryX=0.5;entryY=1;entryDx=0;entryDy=0;fontSize=12;startSize=8;endSize=8;" edge="1" parent="1" source="wjMWc-tGTkvaFPvhf7mI-3" target="7YJ9oviFyOqaCoSFqe8K-6">
          <mxGeometry relative="1" as="geometry" />
        </mxCell>
        <mxCell id="7YJ9oviFyOqaCoSFqe8K-46" style="edgeStyle=none;curved=1;rounded=0;orthogonalLoop=1;jettySize=auto;html=1;entryX=0.5;entryY=1;entryDx=0;entryDy=0;fontSize=12;startSize=8;endSize=8;" edge="1" parent="1" source="wjMWc-tGTkvaFPvhf7mI-3" target="7YJ9oviFyOqaCoSFqe8K-9">
          <mxGeometry relative="1" as="geometry">
            <Array as="points">
              <mxPoint x="118" y="424" />
            </Array>
          </mxGeometry>
        </mxCell>
        <mxCell id="7YJ9oviFyOqaCoSFqe8K-47" style="edgeStyle=none;curved=1;rounded=0;orthogonalLoop=1;jettySize=auto;html=1;entryX=0.5;entryY=1;entryDx=0;entryDy=0;fontSize=12;startSize=8;endSize=8;" edge="1" parent="1" source="wjMWc-tGTkvaFPvhf7mI-3" target="7YJ9oviFyOqaCoSFqe8K-1">
          <mxGeometry relative="1" as="geometry">
            <Array as="points">
              <mxPoint x="-179" y="506" />
            </Array>
          </mxGeometry>
        </mxCell>
        <mxCell id="7YJ9oviFyOqaCoSFqe8K-48" style="edgeStyle=none;curved=1;rounded=0;orthogonalLoop=1;jettySize=auto;html=1;fontSize=12;startSize=8;endSize=8;" edge="1" parent="1" source="wjMWc-tGTkvaFPvhf7mI-3" target="7YJ9oviFyOqaCoSFqe8K-2">
          <mxGeometry relative="1" as="geometry">
            <Array as="points">
              <mxPoint x="11" y="465" />
              <mxPoint x="-99" y="323" />
              <mxPoint x="-85" y="286" />
            </Array>
          </mxGeometry>
        </mxCell>
        <mxCell id="7YJ9oviFyOqaCoSFqe8K-49" style="edgeStyle=none;curved=1;rounded=0;orthogonalLoop=1;jettySize=auto;html=1;fontSize=12;startSize=8;endSize=8;" edge="1" parent="1" source="wjMWc-tGTkvaFPvhf7mI-3" target="7YJ9oviFyOqaCoSFqe8K-3">
          <mxGeometry relative="1" as="geometry">
            <Array as="points">
              <mxPoint x="33" y="428" />
              <mxPoint x="-54" y="330" />
              <mxPoint x="-98" y="213" />
            </Array>
          </mxGeometry>
        </mxCell>
        <mxCell id="7YJ9oviFyOqaCoSFqe8K-50" style="edgeStyle=none;curved=1;rounded=0;orthogonalLoop=1;jettySize=auto;html=1;fontSize=12;startSize=8;endSize=8;" edge="1" parent="1" source="wjMWc-tGTkvaFPvhf7mI-3" target="7YJ9oviFyOqaCoSFqe8K-4">
          <mxGeometry relative="1" as="geometry">
            <Array as="points">
              <mxPoint x="-282" y="510" />
              <mxPoint x="-686" y="390" />
            </Array>
          </mxGeometry>
        </mxCell>
        <mxCell id="7YJ9oviFyOqaCoSFqe8K-65" style="edgeStyle=none;curved=1;rounded=0;orthogonalLoop=1;jettySize=auto;html=1;fontSize=12;startSize=8;endSize=8;" edge="1" parent="1" source="wjMWc-tGTkvaFPvhf7mI-3" target="7YJ9oviFyOqaCoSFqe8K-10">
          <mxGeometry relative="1" as="geometry">
            <Array as="points">
              <mxPoint x="-186" y="274" />
            </Array>
          </mxGeometry>
        </mxCell>
        <mxCell id="wjMWc-tGTkvaFPvhf7mI-3" value="USUARIO&lt;div&gt;&lt;br&gt;&lt;/div&gt;" style="shape=umlActor;verticalLabelPosition=bottom;verticalAlign=top;html=1;outlineConnect=0;" parent="1" vertex="1">
          <mxGeometry x="252" y="508" width="36" height="80" as="geometry" />
        </mxCell>
        <mxCell id="7YJ9oviFyOqaCoSFqe8K-51" style="edgeStyle=none;curved=1;rounded=0;orthogonalLoop=1;jettySize=auto;html=1;fontSize=12;startSize=8;endSize=8;" edge="1" parent="1" source="wjMWc-tGTkvaFPvhf7mI-7" target="wjMWc-tGTkvaFPvhf7mI-8">
          <mxGeometry relative="1" as="geometry" />
        </mxCell>
        <mxCell id="7YJ9oviFyOqaCoSFqe8K-61" style="edgeStyle=none;curved=1;rounded=0;orthogonalLoop=1;jettySize=auto;html=1;fontSize=12;startSize=8;endSize=8;" edge="1" parent="1" source="wjMWc-tGTkvaFPvhf7mI-7" target="7YJ9oviFyOqaCoSFqe8K-1">
          <mxGeometry relative="1" as="geometry" />
        </mxCell>
        <mxCell id="wjMWc-tGTkvaFPvhf7mI-7" value="ACCEDER MENÚ" style="ellipse;whiteSpace=wrap;html=1;" parent="1" vertex="1">
          <mxGeometry x="159" y="329" width="205" height="68" as="geometry" />
        </mxCell>
        <mxCell id="7YJ9oviFyOqaCoSFqe8K-52" style="edgeStyle=none;curved=1;rounded=0;orthogonalLoop=1;jettySize=auto;html=1;exitX=0;exitY=0.5;exitDx=0;exitDy=0;fontSize=12;startSize=8;endSize=8;" edge="1" parent="1" source="wjMWc-tGTkvaFPvhf7mI-8" target="7YJ9oviFyOqaCoSFqe8K-9">
          <mxGeometry relative="1" as="geometry" />
        </mxCell>
        <mxCell id="7YJ9oviFyOqaCoSFqe8K-53" style="edgeStyle=none;curved=1;rounded=0;orthogonalLoop=1;jettySize=auto;html=1;exitX=1;exitY=0.5;exitDx=0;exitDy=0;entryX=0;entryY=0.5;entryDx=0;entryDy=0;fontSize=12;startSize=8;endSize=8;" edge="1" parent="1" source="wjMWc-tGTkvaFPvhf7mI-8" target="wjMWc-tGTkvaFPvhf7mI-10">
          <mxGeometry relative="1" as="geometry" />
        </mxCell>
        <mxCell id="wjMWc-tGTkvaFPvhf7mI-8" value="INICIAR LANZADOR" style="ellipse;whiteSpace=wrap;html=1;" parent="1" vertex="1">
          <mxGeometry x="157" y="215" width="205" height="77" as="geometry" />
        </mxCell>
        <mxCell id="7YJ9oviFyOqaCoSFqe8K-54" style="edgeStyle=none;curved=1;rounded=0;orthogonalLoop=1;jettySize=auto;html=1;exitX=1;exitY=0.5;exitDx=0;exitDy=0;entryX=0;entryY=0.5;entryDx=0;entryDy=0;fontSize=12;startSize=8;endSize=8;" edge="1" parent="1" source="wjMWc-tGTkvaFPvhf7mI-10" target="wjMWc-tGTkvaFPvhf7mI-11">
          <mxGeometry relative="1" as="geometry" />
        </mxCell>
        <mxCell id="wjMWc-tGTkvaFPvhf7mI-10" value="INICIAR JUEGO&lt;span style=&quot;color: rgba(0, 0, 0, 0); font-family: monospace; font-size: 0px; text-align: start; text-wrap: nowrap;&quot;&gt;%3CmxGraphModel%3E%3Croot%3E%3CmxCell%20id%3D%220%22%2F%3E%3CmxCell%20id%3D%221%22%20parent%3D%220%22%2F%3E%3CmxCell%20id%3D%222%22%20value%3D%22INICIAR%20LANZADOR%22%20style%3D%22ellipse%3BwhiteSpace%3Dwrap%3Bhtml%3D1%3B%22%20vertex%3D%221%22%20parent%3D%221%22%3E%3CmxGeometry%20x%3D%22179%22%20y%3D%22-47%22%20width%3D%22205%22%20height%3D%2277%22%20as%3D%22geometry%22%2F%3E%3C%2FmxCell%3E%3C%2Froot%3E%3C%2FmxGraphModel%3E&lt;/span&gt;" style="ellipse;whiteSpace=wrap;html=1;" parent="1" vertex="1">
          <mxGeometry x="376" y="213" width="205" height="77" as="geometry" />
        </mxCell>
        <mxCell id="7YJ9oviFyOqaCoSFqe8K-55" style="edgeStyle=none;curved=1;rounded=0;orthogonalLoop=1;jettySize=auto;html=1;exitX=0.5;exitY=0;exitDx=0;exitDy=0;entryX=0.5;entryY=1;entryDx=0;entryDy=0;fontSize=12;startSize=8;endSize=8;" edge="1" parent="1" source="wjMWc-tGTkvaFPvhf7mI-11" target="wjMWc-tGTkvaFPvhf7mI-12">
          <mxGeometry relative="1" as="geometry" />
        </mxCell>
        <mxCell id="wjMWc-tGTkvaFPvhf7mI-11" value="MOVER SERPIENTE" style="ellipse;whiteSpace=wrap;html=1;" parent="1" vertex="1">
          <mxGeometry x="589" y="215" width="205" height="77" as="geometry" />
        </mxCell>
        <mxCell id="7YJ9oviFyOqaCoSFqe8K-56" style="edgeStyle=none;curved=1;rounded=0;orthogonalLoop=1;jettySize=auto;html=1;exitX=1;exitY=0.5;exitDx=0;exitDy=0;fontSize=12;startSize=8;endSize=8;" edge="1" parent="1" source="wjMWc-tGTkvaFPvhf7mI-12" target="wjMWc-tGTkvaFPvhf7mI-13">
          <mxGeometry relative="1" as="geometry" />
        </mxCell>
        <mxCell id="wjMWc-tGTkvaFPvhf7mI-12" value="COMER MANZANA" style="ellipse;whiteSpace=wrap;html=1;" parent="1" vertex="1">
          <mxGeometry x="589" y="124" width="205" height="77" as="geometry" />
        </mxCell>
        <mxCell id="7YJ9oviFyOqaCoSFqe8K-57" style="edgeStyle=none;curved=1;rounded=0;orthogonalLoop=1;jettySize=auto;html=1;exitX=0.5;exitY=1;exitDx=0;exitDy=0;fontSize=12;startSize=8;endSize=8;" edge="1" parent="1" source="wjMWc-tGTkvaFPvhf7mI-13" target="wjMWc-tGTkvaFPvhf7mI-14">
          <mxGeometry relative="1" as="geometry" />
        </mxCell>
        <mxCell id="wjMWc-tGTkvaFPvhf7mI-13" value="PERDER PARTIDA" style="ellipse;whiteSpace=wrap;html=1;" parent="1" vertex="1">
          <mxGeometry x="803" y="124" width="205" height="77" as="geometry" />
        </mxCell>
        <mxCell id="7YJ9oviFyOqaCoSFqe8K-58" style="edgeStyle=none;curved=1;rounded=0;orthogonalLoop=1;jettySize=auto;html=1;exitX=0.5;exitY=1;exitDx=0;exitDy=0;entryX=0.5;entryY=0;entryDx=0;entryDy=0;fontSize=12;startSize=8;endSize=8;" edge="1" parent="1" source="wjMWc-tGTkvaFPvhf7mI-14" target="7YJ9oviFyOqaCoSFqe8K-6">
          <mxGeometry relative="1" as="geometry" />
        </mxCell>
        <mxCell id="7YJ9oviFyOqaCoSFqe8K-59" style="edgeStyle=none;curved=1;rounded=0;orthogonalLoop=1;jettySize=auto;html=1;exitX=0.5;exitY=1;exitDx=0;exitDy=0;entryX=0.5;entryY=0;entryDx=0;entryDy=0;fontSize=12;startSize=8;endSize=8;" edge="1" parent="1" source="wjMWc-tGTkvaFPvhf7mI-14" target="wjMWc-tGTkvaFPvhf7mI-15">
          <mxGeometry relative="1" as="geometry" />
        </mxCell>
        <mxCell id="wjMWc-tGTkvaFPvhf7mI-14" value="REGUISTRAR PUNTUACIÓN/NOMBRE" style="ellipse;whiteSpace=wrap;html=1;" parent="1" vertex="1">
          <mxGeometry x="825" y="213" width="205" height="77" as="geometry" />
        </mxCell>
        <mxCell id="7YJ9oviFyOqaCoSFqe8K-62" style="edgeStyle=none;curved=1;rounded=0;orthogonalLoop=1;jettySize=auto;html=1;exitX=0.5;exitY=0;exitDx=0;exitDy=0;entryX=0.5;entryY=1;entryDx=0;entryDy=0;fontSize=12;startSize=8;endSize=8;" edge="1" parent="1" source="7YJ9oviFyOqaCoSFqe8K-1" target="7YJ9oviFyOqaCoSFqe8K-2">
          <mxGeometry relative="1" as="geometry" />
        </mxCell>
        <mxCell id="7YJ9oviFyOqaCoSFqe8K-1" value="VER RECORD" style="ellipse;whiteSpace=wrap;html=1;" vertex="1" parent="1">
          <mxGeometry x="-307" y="307" width="205" height="68" as="geometry" />
        </mxCell>
        <mxCell id="7YJ9oviFyOqaCoSFqe8K-63" style="edgeStyle=none;curved=1;rounded=0;orthogonalLoop=1;jettySize=auto;html=1;exitX=0.5;exitY=0;exitDx=0;exitDy=0;entryX=0.5;entryY=1;entryDx=0;entryDy=0;fontSize=12;startSize=8;endSize=8;" edge="1" parent="1" source="7YJ9oviFyOqaCoSFqe8K-2" target="7YJ9oviFyOqaCoSFqe8K-3">
          <mxGeometry relative="1" as="geometry" />
        </mxCell>
        <mxCell id="7YJ9oviFyOqaCoSFqe8K-2" value="MODIFICAR NOMBRE" style="ellipse;whiteSpace=wrap;html=1;" vertex="1" parent="1">
          <mxGeometry x="-311" y="219.5" width="205" height="68" as="geometry" />
        </mxCell>
        <mxCell id="7YJ9oviFyOqaCoSFqe8K-64" style="edgeStyle=none;curved=1;rounded=0;orthogonalLoop=1;jettySize=auto;html=1;exitX=0.5;exitY=0;exitDx=0;exitDy=0;entryX=0.5;entryY=1;entryDx=0;entryDy=0;fontSize=12;startSize=8;endSize=8;" edge="1" parent="1" source="7YJ9oviFyOqaCoSFqe8K-3" target="7YJ9oviFyOqaCoSFqe8K-4">
          <mxGeometry relative="1" as="geometry" />
        </mxCell>
        <mxCell id="7YJ9oviFyOqaCoSFqe8K-3" value="AÑADIR RECORD" style="ellipse;whiteSpace=wrap;html=1;" vertex="1" parent="1">
          <mxGeometry x="-311" y="137" width="205" height="68" as="geometry" />
        </mxCell>
        <mxCell id="7YJ9oviFyOqaCoSFqe8K-4" value="SALIR APP" style="ellipse;whiteSpace=wrap;html=1;" vertex="1" parent="1">
          <mxGeometry x="-311" y="52" width="205" height="68" as="geometry" />
        </mxCell>
        <mxCell id="7YJ9oviFyOqaCoSFqe8K-6" value="FINALIZAR JUEGO" style="ellipse;whiteSpace=wrap;html=1;" vertex="1" parent="1">
          <mxGeometry x="711" y="337.5" width="205" height="77" as="geometry" />
        </mxCell>
        <mxCell id="7YJ9oviFyOqaCoSFqe8K-60" style="edgeStyle=none;curved=1;rounded=0;orthogonalLoop=1;jettySize=auto;html=1;exitX=0.5;exitY=0;exitDx=0;exitDy=0;entryX=0.5;entryY=1;entryDx=0;entryDy=0;fontSize=12;startSize=8;endSize=8;" edge="1" parent="1" source="7YJ9oviFyOqaCoSFqe8K-9" target="7YJ9oviFyOqaCoSFqe8K-10">
          <mxGeometry relative="1" as="geometry" />
        </mxCell>
        <mxCell id="7YJ9oviFyOqaCoSFqe8K-9" value="VER TOP&amp;nbsp;" style="ellipse;whiteSpace=wrap;html=1;" vertex="1" parent="1">
          <mxGeometry x="-60" y="219.5" width="205" height="77" as="geometry" />
        </mxCell>
        <mxCell id="7YJ9oviFyOqaCoSFqe8K-10" value="SALIR TOP" style="ellipse;whiteSpace=wrap;html=1;" vertex="1" parent="1">
          <mxGeometry x="-58" y="116" width="205" height="77" as="geometry" />
        </mxCell>
        <mxCell id="7YJ9oviFyOqaCoSFqe8K-28" style="edgeStyle=none;curved=1;rounded=0;orthogonalLoop=1;jettySize=auto;html=1;exitX=0.5;exitY=1;exitDx=0;exitDy=0;fontSize=12;startSize=8;endSize=8;" edge="1" parent="1" source="wjMWc-tGTkvaFPvhf7mI-1" target="wjMWc-tGTkvaFPvhf7mI-1">
          <mxGeometry relative="1" as="geometry" />
        </mxCell>
        <mxCell id="wjMWc-tGTkvaFPvhf7mI-15" value="RENICIAR PARTIDA" style="ellipse;whiteSpace=wrap;html=1;" parent="1" vertex="1">
          <mxGeometry x="939" y="337.5" width="205" height="77" as="geometry" />
        </mxCell>
        <mxCell id="7YJ9oviFyOqaCoSFqe8K-45" style="edgeStyle=none;curved=1;rounded=0;orthogonalLoop=1;jettySize=auto;html=1;entryX=0.556;entryY=1.002;entryDx=0;entryDy=0;entryPerimeter=0;fontSize=12;startSize=8;endSize=8;" edge="1" parent="1" source="wjMWc-tGTkvaFPvhf7mI-3" target="wjMWc-tGTkvaFPvhf7mI-15">
          <mxGeometry relative="1" as="geometry" />
        </mxCell>
      </root>
    </mxGraphModel>
  </diagram>
</mxfile>
